<mxfile host="app.diagrams.net" modified="2023-08-09T19:49:13.777Z" agent="Mozilla/5.0 (Windows NT 10.0; Win64; x64) AppleWebKit/537.36 (KHTML, like Gecko) Chrome/114.0.0.0 YaBrowser/23.7.2.765 Yowser/2.5 Safari/537.36" etag="bpQSQiTED-e7BYLu-FlO" version="21.6.7" type="device">
  <diagram name="Страница — 1" id="V60JqudItsmMfbYXUONO">
    <mxGraphModel dx="1107" dy="507" grid="1" gridSize="10" guides="1" tooltips="1" connect="1" arrows="1" fold="1" page="1" pageScale="1" pageWidth="827" pageHeight="1169" math="0" shadow="0">
      <root>
        <mxCell id="0" />
        <mxCell id="1" parent="0" />
        <mxCell id="u9CDMjerkVKDK43dx7hS-14" value="" style="rounded=0;whiteSpace=wrap;html=1;" vertex="1" parent="1">
          <mxGeometry x="520" y="60" width="490" height="250" as="geometry" />
        </mxCell>
        <mxCell id="u9CDMjerkVKDK43dx7hS-7" value="" style="whiteSpace=wrap;html=1;aspect=fixed;" vertex="1" parent="1">
          <mxGeometry x="110" y="60" width="370" height="196.03" as="geometry" />
        </mxCell>
        <mxCell id="2X9FXbN126Qv_Ecs7s51-13" style="edgeStyle=orthogonalEdgeStyle;rounded=0;orthogonalLoop=1;jettySize=auto;html=1;" parent="1" source="2X9FXbN126Qv_Ecs7s51-1" target="2X9FXbN126Qv_Ecs7s51-5" edge="1">
          <mxGeometry relative="1" as="geometry" />
        </mxCell>
        <mxCell id="2X9FXbN126Qv_Ecs7s51-1" value=" Class Toy" style="swimlane;fontStyle=0;childLayout=stackLayout;horizontal=1;startSize=26;horizontalStack=0;resizeParent=1;resizeParentMax=0;resizeLast=0;collapsible=1;marginBottom=0;align=center;fontSize=14;" parent="1" vertex="1">
          <mxGeometry x="120" y="180" width="110" height="56" as="geometry" />
        </mxCell>
        <mxCell id="2X9FXbN126Qv_Ecs7s51-2" value="&amp;nbsp;" style="text;strokeColor=none;fillColor=none;spacingLeft=4;spacingRight=4;overflow=hidden;rotatable=0;points=[[0,0.5],[1,0.5]];portConstraint=eastwest;fontSize=12;whiteSpace=wrap;html=1;" parent="2X9FXbN126Qv_Ecs7s51-1" vertex="1">
          <mxGeometry y="26" width="110" height="30" as="geometry" />
        </mxCell>
        <mxCell id="2X9FXbN126Qv_Ecs7s51-5" value=" Class Color" style="swimlane;fontStyle=0;childLayout=stackLayout;horizontal=1;startSize=26;horizontalStack=0;resizeParent=1;resizeParentMax=0;resizeLast=0;collapsible=1;marginBottom=0;align=center;fontSize=14;" parent="1" vertex="1">
          <mxGeometry x="120" y="80" width="110" height="56" as="geometry" />
        </mxCell>
        <mxCell id="2X9FXbN126Qv_Ecs7s51-6" value="&amp;nbsp;" style="text;strokeColor=none;fillColor=none;spacingLeft=4;spacingRight=4;overflow=hidden;rotatable=0;points=[[0,0.5],[1,0.5]];portConstraint=eastwest;fontSize=12;whiteSpace=wrap;html=1;" parent="2X9FXbN126Qv_Ecs7s51-5" vertex="1">
          <mxGeometry y="26" width="110" height="30" as="geometry" />
        </mxCell>
        <mxCell id="2X9FXbN126Qv_Ecs7s51-7" value=" Class Program" style="swimlane;fontStyle=0;childLayout=stackLayout;horizontal=1;startSize=26;horizontalStack=0;resizeParent=1;resizeParentMax=0;resizeLast=0;collapsible=1;marginBottom=0;align=center;fontSize=14;" parent="1" vertex="1">
          <mxGeometry x="330" y="80" width="110" height="56" as="geometry" />
        </mxCell>
        <mxCell id="2X9FXbN126Qv_Ecs7s51-8" value="&amp;nbsp;" style="text;strokeColor=none;fillColor=none;spacingLeft=4;spacingRight=4;overflow=hidden;rotatable=0;points=[[0,0.5],[1,0.5]];portConstraint=eastwest;fontSize=12;whiteSpace=wrap;html=1;" parent="2X9FXbN126Qv_Ecs7s51-7" vertex="1">
          <mxGeometry y="26" width="110" height="30" as="geometry" />
        </mxCell>
        <mxCell id="2X9FXbN126Qv_Ecs7s51-9" value=" Class ToyComparator" style="swimlane;fontStyle=0;childLayout=stackLayout;horizontal=1;startSize=26;horizontalStack=0;resizeParent=1;resizeParentMax=0;resizeLast=0;collapsible=1;marginBottom=0;align=center;fontSize=14;" parent="1" vertex="1">
          <mxGeometry x="309.5" y="180" width="151" height="56" as="geometry" />
        </mxCell>
        <mxCell id="2X9FXbN126Qv_Ecs7s51-17" style="edgeStyle=orthogonalEdgeStyle;rounded=0;orthogonalLoop=1;jettySize=auto;html=1;" parent="2X9FXbN126Qv_Ecs7s51-9" source="2X9FXbN126Qv_Ecs7s51-10" edge="1">
          <mxGeometry relative="1" as="geometry">
            <mxPoint x="-79.5" y="40" as="targetPoint" />
          </mxGeometry>
        </mxCell>
        <mxCell id="2X9FXbN126Qv_Ecs7s51-10" value="&amp;nbsp;" style="text;strokeColor=none;fillColor=none;spacingLeft=4;spacingRight=4;overflow=hidden;rotatable=0;points=[[0,0.5],[1,0.5]];portConstraint=eastwest;fontSize=12;whiteSpace=wrap;html=1;" parent="2X9FXbN126Qv_Ecs7s51-9" vertex="1">
          <mxGeometry y="26" width="151" height="30" as="geometry" />
        </mxCell>
        <mxCell id="2X9FXbN126Qv_Ecs7s51-21" value=" Interface IToy" style="swimlane;fontStyle=0;childLayout=stackLayout;horizontal=1;startSize=26;horizontalStack=0;resizeParent=1;resizeParentMax=0;resizeLast=0;collapsible=1;marginBottom=0;align=center;fontSize=14;" parent="1" vertex="1">
          <mxGeometry x="690" y="80" width="110" height="56" as="geometry" />
        </mxCell>
        <mxCell id="2X9FXbN126Qv_Ecs7s51-22" value="&amp;nbsp;" style="text;strokeColor=none;fillColor=none;spacingLeft=4;spacingRight=4;overflow=hidden;rotatable=0;points=[[0,0.5],[1,0.5]];portConstraint=eastwest;fontSize=12;whiteSpace=wrap;html=1;" parent="2X9FXbN126Qv_Ecs7s51-21" vertex="1">
          <mxGeometry y="26" width="110" height="30" as="geometry" />
        </mxCell>
        <mxCell id="2X9FXbN126Qv_Ecs7s51-25" style="edgeStyle=orthogonalEdgeStyle;rounded=0;orthogonalLoop=1;jettySize=auto;html=1;" parent="1" source="2X9FXbN126Qv_Ecs7s51-23" target="2X9FXbN126Qv_Ecs7s51-21" edge="1">
          <mxGeometry relative="1" as="geometry" />
        </mxCell>
        <mxCell id="2X9FXbN126Qv_Ecs7s51-23" value=" Class Toy" style="swimlane;fontStyle=0;childLayout=stackLayout;horizontal=1;startSize=26;horizontalStack=0;resizeParent=1;resizeParentMax=0;resizeLast=0;collapsible=1;marginBottom=0;align=center;fontSize=14;" parent="1" vertex="1">
          <mxGeometry x="690" y="160" width="110" height="56" as="geometry" />
        </mxCell>
        <mxCell id="2X9FXbN126Qv_Ecs7s51-24" value="&amp;nbsp;" style="text;strokeColor=none;fillColor=none;spacingLeft=4;spacingRight=4;overflow=hidden;rotatable=0;points=[[0,0.5],[1,0.5]];portConstraint=eastwest;fontSize=12;whiteSpace=wrap;html=1;" parent="2X9FXbN126Qv_Ecs7s51-23" vertex="1">
          <mxGeometry y="26" width="110" height="30" as="geometry" />
        </mxCell>
        <mxCell id="2X9FXbN126Qv_Ecs7s51-26" value=" Interface IColor" style="swimlane;fontStyle=0;childLayout=stackLayout;horizontal=1;startSize=26;horizontalStack=0;resizeParent=1;resizeParentMax=0;resizeLast=0;collapsible=1;marginBottom=0;align=center;fontSize=14;" parent="1" vertex="1">
          <mxGeometry x="530" y="160" width="110" height="56" as="geometry" />
        </mxCell>
        <mxCell id="2X9FXbN126Qv_Ecs7s51-27" value="&amp;nbsp;" style="text;strokeColor=none;fillColor=none;spacingLeft=4;spacingRight=4;overflow=hidden;rotatable=0;points=[[0,0.5],[1,0.5]];portConstraint=eastwest;fontSize=12;whiteSpace=wrap;html=1;" parent="2X9FXbN126Qv_Ecs7s51-26" vertex="1">
          <mxGeometry y="26" width="110" height="30" as="geometry" />
        </mxCell>
        <mxCell id="2X9FXbN126Qv_Ecs7s51-30" style="edgeStyle=orthogonalEdgeStyle;rounded=0;orthogonalLoop=1;jettySize=auto;html=1;" parent="1" source="2X9FXbN126Qv_Ecs7s51-28" target="2X9FXbN126Qv_Ecs7s51-26" edge="1">
          <mxGeometry relative="1" as="geometry" />
        </mxCell>
        <mxCell id="2X9FXbN126Qv_Ecs7s51-28" value=" Class Color" style="swimlane;fontStyle=0;childLayout=stackLayout;horizontal=1;startSize=26;horizontalStack=0;resizeParent=1;resizeParentMax=0;resizeLast=0;collapsible=1;marginBottom=0;align=center;fontSize=14;" parent="1" vertex="1">
          <mxGeometry x="530" y="240" width="110" height="56" as="geometry" />
        </mxCell>
        <mxCell id="2X9FXbN126Qv_Ecs7s51-29" value="&amp;nbsp;" style="text;strokeColor=none;fillColor=none;spacingLeft=4;spacingRight=4;overflow=hidden;rotatable=0;points=[[0,0.5],[1,0.5]];portConstraint=eastwest;fontSize=12;whiteSpace=wrap;html=1;" parent="2X9FXbN126Qv_Ecs7s51-28" vertex="1">
          <mxGeometry y="26" width="110" height="30" as="geometry" />
        </mxCell>
        <mxCell id="u9CDMjerkVKDK43dx7hS-1" value=" Class ToyComparator" style="swimlane;fontStyle=0;childLayout=stackLayout;horizontal=1;startSize=26;horizontalStack=0;resizeParent=1;resizeParentMax=0;resizeLast=0;collapsible=1;marginBottom=0;align=center;fontSize=14;" vertex="1" parent="1">
          <mxGeometry x="840" y="80" width="151" height="56" as="geometry" />
        </mxCell>
        <mxCell id="u9CDMjerkVKDK43dx7hS-3" value="&amp;nbsp;" style="text;strokeColor=none;fillColor=none;spacingLeft=4;spacingRight=4;overflow=hidden;rotatable=0;points=[[0,0.5],[1,0.5]];portConstraint=eastwest;fontSize=12;whiteSpace=wrap;html=1;" vertex="1" parent="u9CDMjerkVKDK43dx7hS-1">
          <mxGeometry y="26" width="151" height="30" as="geometry" />
        </mxCell>
        <mxCell id="u9CDMjerkVKDK43dx7hS-5" value=" Class Program" style="swimlane;fontStyle=0;childLayout=stackLayout;horizontal=1;startSize=26;horizontalStack=0;resizeParent=1;resizeParentMax=0;resizeLast=0;collapsible=1;marginBottom=0;align=center;fontSize=14;" vertex="1" parent="1">
          <mxGeometry x="850" y="240" width="110" height="56" as="geometry" />
        </mxCell>
        <mxCell id="u9CDMjerkVKDK43dx7hS-6" value="&amp;nbsp;" style="text;strokeColor=none;fillColor=none;spacingLeft=4;spacingRight=4;overflow=hidden;rotatable=0;points=[[0,0.5],[1,0.5]];portConstraint=eastwest;fontSize=12;whiteSpace=wrap;html=1;" vertex="1" parent="u9CDMjerkVKDK43dx7hS-5">
          <mxGeometry y="26" width="110" height="30" as="geometry" />
        </mxCell>
        <mxCell id="u9CDMjerkVKDK43dx7hS-10" style="edgeStyle=orthogonalEdgeStyle;rounded=0;orthogonalLoop=1;jettySize=auto;html=1;entryX=1;entryY=0.5;entryDx=0;entryDy=0;" edge="1" parent="1" source="2X9FXbN126Qv_Ecs7s51-24" target="2X9FXbN126Qv_Ecs7s51-27">
          <mxGeometry relative="1" as="geometry" />
        </mxCell>
        <mxCell id="u9CDMjerkVKDK43dx7hS-12" style="edgeStyle=orthogonalEdgeStyle;rounded=0;orthogonalLoop=1;jettySize=auto;html=1;entryX=1;entryY=0.5;entryDx=0;entryDy=0;" edge="1" parent="1" source="u9CDMjerkVKDK43dx7hS-3" target="2X9FXbN126Qv_Ecs7s51-22">
          <mxGeometry relative="1" as="geometry" />
        </mxCell>
        <mxCell id="u9CDMjerkVKDK43dx7hS-15" value="&lt;font style=&quot;font-size: 36px;&quot;&gt;Было&lt;/font&gt;" style="text;html=1;strokeColor=none;fillColor=none;align=center;verticalAlign=middle;whiteSpace=wrap;rounded=0;" vertex="1" parent="1">
          <mxGeometry x="260" y="20" width="60" height="30" as="geometry" />
        </mxCell>
        <mxCell id="u9CDMjerkVKDK43dx7hS-16" value="&lt;font style=&quot;font-size: 36px;&quot;&gt;Стало&lt;/font&gt;" style="text;html=1;strokeColor=none;fillColor=none;align=center;verticalAlign=middle;whiteSpace=wrap;rounded=0;" vertex="1" parent="1">
          <mxGeometry x="740" y="20" width="60" height="30" as="geometry" />
        </mxCell>
      </root>
    </mxGraphModel>
  </diagram>
</mxfile>
